<?xml version="1.0" encoding="UTF-8" standalone="no"?>
<!-- Created with Inkscape (http://www.inkscape.org/) -->

<svg
   xmlns:dc="http://purl.org/dc/elements/1.1/"
   xmlns:cc="http://creativecommons.org/ns#"
   xmlns:rdf="http://www.w3.org/1999/02/22-rdf-syntax-ns#"
   xmlns:svg="http://www.w3.org/2000/svg"
   xmlns="http://www.w3.org/2000/svg"
   xmlns:sodipodi="http://sodipodi.sourceforge.net/DTD/sodipodi-0.dtd"
   xmlns:inkscape="http://www.inkscape.org/namespaces/inkscape"
   width="512mm"
   height="512mm"
   viewBox="0 0 512 512"
   version="1.1"
   id="svg8"
   sodipodi:docname="slide2.svg"
   inkscape:version="0.92.0 r">
  <defs
     id="defs2" />
  <sodipodi:namedview
     id="base"
     pagecolor="#ffffff"
     bordercolor="#666666"
     borderopacity="1.0"
     inkscape:pageopacity="0"
     inkscape:pageshadow="2"
     inkscape:zoom="0.24748737"
     inkscape:cx="428.06133"
     inkscape:cy="1026.9379"
     inkscape:document-units="mm"
     inkscape:current-layer="layer1"
     showgrid="false"
     inkscape:pagecheckerboard="true"
     inkscape:window-width="1920"
     inkscape:window-height="1004"
     inkscape:window-x="0"
     inkscape:window-y="36"
     inkscape:window-maximized="1" />
  <metadata
     id="metadata5">
    <rdf:RDF>
      <cc:Work
         rdf:about="">
        <dc:format>image/svg+xml</dc:format>
        <dc:type
           rdf:resource="http://purl.org/dc/dcmitype/StillImage" />
        <dc:title />
      </cc:Work>
    </rdf:RDF>
  </metadata>
  <g
     inkscape:groupmode="layer"
     id="layer2"
     inkscape:label="Smartphone"
     transform="translate(0,215)">
    <path
       style="fill:#cccccc;fill-opacity:1;stroke:none;stroke-width:1;stroke-miterlimit:4;stroke-dasharray:none"
       inkscape:connector-curvature="0"
       d="m 152.36522,297 h 195.27077 c 28.88061,0 52.36399,-21.19741 52.36399,-47.26528 V -167.73145 C 399.99998,-193.79931 376.5166,-215 347.63599,-215 H 152.36522 C 123.48705,-215 100,-193.8004 100,-167.73145 V 249.73584 C 99.9988,275.8037 123.48705,297 152.36522,297 Z m -37.97471,-454.90407 c 0,-33.26723 17.02959,-38.05604 37.97471,-38.05604 h 195.27077 c 20.94268,0 37.97106,-1.2588 37.97106,38.05604 v 356.9911 c 0,18.9041 -17.02838,34.27954 -37.97106,34.27954 H 152.36522 c -20.9439,0 -37.97471,-15.37432 -37.97471,-34.27954 z"
       id="path4485"
       sodipodi:nodetypes="ssssssscssssssssss" />
  </g>
  <g
     inkscape:label="Hand"
     inkscape:groupmode="layer"
     id="layer1"
     transform="translate(0,215)"
     style="display:inline">
    <g
       style="fill:#000000"
       id="g4497"
       transform="matrix(1.2144913,0,0,1.0962095,-33.623191,-214.99999)" />
    <g
       style="fill:#000000"
       id="g4499"
       transform="matrix(1.2144913,0,0,1.0962095,-33.623191,-214.99999)" />
    <g
       style="fill:#000000"
       id="g4501"
       transform="matrix(1.2144913,0,0,1.0962095,-33.623191,-214.99999)" />
    <g
       style="fill:#000000"
       id="g4503"
       transform="matrix(1.2144913,0,0,1.0962095,-33.623191,-214.99999)" />
    <g
       style="fill:#000000"
       id="g4505"
       transform="matrix(1.2144913,0,0,1.0962095,-33.623191,-214.99999)" />
    <g
       style="fill:#000000"
       id="g4507"
       transform="matrix(1.2144913,0,0,1.0962095,-33.623191,-214.99999)" />
    <g
       style="fill:#000000"
       id="g4509"
       transform="matrix(1.2144913,0,0,1.0962095,-33.623191,-214.99999)" />
    <g
       style="fill:#000000"
       id="g4511"
       transform="matrix(1.2144913,0,0,1.0962095,-33.623191,-214.99999)" />
    <g
       style="fill:#000000"
       id="g4513"
       transform="matrix(1.2144913,0,0,1.0962095,-33.623191,-214.99999)" />
    <g
       style="fill:#000000"
       id="g4515"
       transform="matrix(1.2144913,0,0,1.0962095,-33.623191,-214.99999)" />
    <g
       style="fill:#000000"
       id="g4517"
       transform="matrix(1.2144913,0,0,1.0962095,-33.623191,-214.99999)" />
    <g
       style="fill:#000000"
       id="g4519"
       transform="matrix(1.2144913,0,0,1.0962095,-33.623191,-214.99999)" />
    <g
       style="fill:#000000"
       id="g4521"
       transform="matrix(1.2144913,0,0,1.0962095,-33.623191,-214.99999)" />
    <g
       style="fill:#000000"
       id="g4523"
       transform="matrix(1.2144913,0,0,1.0962095,-33.623191,-214.99999)" />
    <g
       style="fill:#000000"
       id="g4525"
       transform="matrix(1.2144913,0,0,1.0962095,-33.623191,-214.99999)" />
    <g
       id="g4615"
       transform="matrix(0.28976827,0,0,0.28976827,114.07306,-119.07621)"
       style="fill:#ffffff;fill-opacity:1;stroke:#000000;stroke-width:0;stroke-miterlimit:4;stroke-dasharray:none;stroke-opacity:1">
      <g
         id="g4559"
         style="fill:#ffffff;fill-opacity:1;stroke:#000000;stroke-width:0;stroke-miterlimit:4;stroke-dasharray:none;stroke-opacity:1">
        <path
           id="path4557"
           d="m 438.605,235.4 c -0.7,-3.8 -3,-7 -6.3,-9 -76,-45.3 -120.6,-54.7 -153.2,-61.5 -4.2,-0.9 -8.3,-1.7 -12.2,-2.6 l -14.1,-115.9 c -0.5,-25.6 -21.5,-46.4 -47.2,-46.4 -25.4,0 -45.9,19.6 -47.2,44.8 0,0.5 -0.1,0.9 -0.1,1.4 v 68.2 l -1.1,166.5 -18,-13.9 c -3.5,-3 -27.9,-22.7 -58.1,-22.7 -20.4,0 -38.5,8.6 -53.8,25.4 -4.3,4.7 -4.7,11.7 -1,16.9 1.3,1.8 32.3,45.2 80.9,89.4 28.8,26.1 57.8,47 86.2,62.1 36.2,19.2 71.6,29.1 105.3,29.4 0.5,0 1.1,0 1.6,0 v 0 c 46,0 81.8,-15.2 106.4,-45.1 54.8,-66.6 32.8,-182.1 31.9,-187 z m -52.8,170 c -19.2,23.4 -48,35.2 -85.5,35.2 -0.5,0 -0.9,0 -1.4,0 -66.9,-0.5 -131.1,-46 -173.1,-84.1 -33.5,-30.4 -58.8,-61 -70.4,-76 7.9,-6.1 16.4,-9.1 25.8,-9.1 21.7,0 40.5,16.1 40.6,16.3 0.2,0.2 0.5,0.4 0.7,0.6 l 39.9,30.7 c 4.1,3.1 9.5,3.7 14.2,1.4 4.6,-2.2 7.5,-6.9 7.6,-12 l 1.3,-193.8 V 47.1 c 0,-0.1 0,-0.3 0,-0.4 0.3,-11 9.2,-19.6 20.2,-19.6 11.2,0 20.2,9.1 20.2,20.2 0,0.5 0,1.1 0.1,1.6 l 15.1,125.9 c 0.7,5.5 4.6,10 9.9,11.4 7.2,1.9 14.6,3.5 22.5,5.1 31.6,6.6 70.8,14.9 139.6,55.1 3.4,23.2 13.1,109.9 -27.3,159 z"
           inkscape:connector-curvature="0"
           style="fill:#ffffff;fill-opacity:1;stroke:#000000;stroke-width:0;stroke-miterlimit:4;stroke-dasharray:none;stroke-opacity:1" />
      </g>
      <g
         id="g4561"
         style="fill:#ffffff;fill-opacity:1;stroke:#000000;stroke-width:0;stroke-miterlimit:4;stroke-dasharray:none;stroke-opacity:1" />
      <g
         id="g4563"
         style="fill:#ffffff;fill-opacity:1;stroke:#000000;stroke-width:0;stroke-miterlimit:4;stroke-dasharray:none;stroke-opacity:1" />
      <g
         id="g4565"
         style="fill:#ffffff;fill-opacity:1;stroke:#000000;stroke-width:0;stroke-miterlimit:4;stroke-dasharray:none;stroke-opacity:1" />
      <g
         id="g4567"
         style="fill:#ffffff;fill-opacity:1;stroke:#000000;stroke-width:0;stroke-miterlimit:4;stroke-dasharray:none;stroke-opacity:1" />
      <g
         id="g4569"
         style="fill:#ffffff;fill-opacity:1;stroke:#000000;stroke-width:0;stroke-miterlimit:4;stroke-dasharray:none;stroke-opacity:1" />
      <g
         id="g4571"
         style="fill:#ffffff;fill-opacity:1;stroke:#000000;stroke-width:0;stroke-miterlimit:4;stroke-dasharray:none;stroke-opacity:1" />
      <g
         id="g4573"
         style="fill:#ffffff;fill-opacity:1;stroke:#000000;stroke-width:0;stroke-miterlimit:4;stroke-dasharray:none;stroke-opacity:1" />
      <g
         id="g4575"
         style="fill:#ffffff;fill-opacity:1;stroke:#000000;stroke-width:0;stroke-miterlimit:4;stroke-dasharray:none;stroke-opacity:1" />
      <g
         id="g4577"
         style="fill:#ffffff;fill-opacity:1;stroke:#000000;stroke-width:0;stroke-miterlimit:4;stroke-dasharray:none;stroke-opacity:1" />
      <g
         id="g4579"
         style="fill:#ffffff;fill-opacity:1;stroke:#000000;stroke-width:0;stroke-miterlimit:4;stroke-dasharray:none;stroke-opacity:1" />
      <g
         id="g4581"
         style="fill:#ffffff;fill-opacity:1;stroke:#000000;stroke-width:0;stroke-miterlimit:4;stroke-dasharray:none;stroke-opacity:1" />
      <g
         id="g4583"
         style="fill:#ffffff;fill-opacity:1;stroke:#000000;stroke-width:0;stroke-miterlimit:4;stroke-dasharray:none;stroke-opacity:1" />
      <g
         id="g4585"
         style="fill:#ffffff;fill-opacity:1;stroke:#000000;stroke-width:0;stroke-miterlimit:4;stroke-dasharray:none;stroke-opacity:1" />
      <g
         id="g4587"
         style="fill:#ffffff;fill-opacity:1;stroke:#000000;stroke-width:0;stroke-miterlimit:4;stroke-dasharray:none;stroke-opacity:1" />
      <g
         id="g4589"
         style="fill:#ffffff;fill-opacity:1;stroke:#000000;stroke-width:0;stroke-miterlimit:4;stroke-dasharray:none;stroke-opacity:1" />
    </g>
    <text
       xml:space="preserve"
       style="font-style:normal;font-weight:normal;font-size:6.61458302px;line-height:6.61458302px;font-family:sans-serif;letter-spacing:0px;word-spacing:0px;fill:#f9f9f9;fill-opacity:1;stroke:none;stroke-width:0.26458332px;stroke-linecap:butt;stroke-linejoin:miter;stroke-opacity:1"
       x="148.16667"
       y="-119.52975"
       id="text4671"><tspan
         sodipodi:role="line"
         id="tspan4669"
         x="148.16667"
         y="-119.52975"
         style="font-size:14.8166666px;fill:#f9f9f9;stroke-width:0.26458332px">http://www.example.com</tspan></text>
    <circle
       style="fill:#ffffff;fill-opacity:1;stroke:#505050;stroke-width:3;stroke-miterlimit:4;stroke-dasharray:none;stroke-opacity:1"
       id="path4677"
       cx="347.62122"
       cy="59.5"
       r="37.054211" />
    <path
       style="fill:none;fill-rule:evenodd;stroke:#ffffff;stroke-width:10.00000028;stroke-linecap:butt;stroke-linejoin:miter;stroke-miterlimit:4;stroke-dasharray:30.00000084,10.00000028;stroke-opacity:1;stroke-dashoffset:0"
       d="m 247.18912,-101.40359 c 59.13618,17.210214 90.76603,49.75234 70.64804,125.049743 l -38.89073,-35.07471"
       id="path4739"
       inkscape:connector-curvature="0"
       sodipodi:nodetypes="ccc" />
    <path
       style="fill:#ffffff;fill-rule:evenodd;stroke:#ffffff;stroke-width:10;stroke-linecap:butt;stroke-linejoin:miter;stroke-miterlimit:4;stroke-dasharray:none;stroke-opacity:1"
       d="m 316.89222,29.126808 37.27147,-44.524117"
       id="path4758"
       inkscape:connector-curvature="0"
       sodipodi:nodetypes="cc" />
    <g
       id="g3027"
       transform="matrix(0.21166667,0,0,-0.21166666,332.00027,47.906657)"
       style="fill:#1a1a1a">
      <path
         style="fill:#1a1a1a;stroke-width:0.0984252"
         inkscape:connector-curvature="0"
         id="path3029"
         d="m 117.41999,-17.665401 q 1.08268,0.688976 2.46063,2.165354 v -0.09842 q 0,-0.196851 -0.93504,-0.984252 -0.93504,-0.787402 -1.13189,-1.181103 -0.0984,0.09843 -0.3937,0.09843 z m -0.59055,-0.09843 q -0.0984,0.09843 -0.24606,0.295276 -0.14764,0.19685 -0.14764,0.295276 0.29528,-0.196851 0.98425,-0.492126 -0.59055,-0.393701 -0.59055,-0.09843 z M 71.652274,0.24798458 q -1.574803,0.1968504 -2.559055,0.49212599 0.09842,0 0.639764,-0.0984252 0.541339,-0.0984252 1.033465,-0.1968504 0.492125,-0.0984252 0.885826,-0.19685039 z m 4.429134,3.64173232 q 0.688977,0.3937008 1.32874,0.246063 0.639764,-0.1476378 0.738189,-0.738189 -0.492126,0.2952756 -2.066929,0.492126 z M 75.294007,3.2991657 74.998731,3.4960161 q -0.19685,0.2952756 -0.541339,0.492126 -0.344488,0.1968504 -0.442913,0.1968504 0.19685,-0.098425 2.066929,-0.2952756 Q 75.490857,3.4960161 75.294007,3.2991657 Z M 65.254636,11.566882 v 0.196851 q 0.09843,-0.196851 0.295276,-0.541339 0.19685,-0.344488 0.295276,-0.541338 z M 54.919991,7.6298744 q 0,-0.1968504 -0.09843,-0.1968504 l -0.09842,0.1968504 z M 91.82944,-95.126032 v -0.09843 z M 75.589282,23.181056 q 20.570867,0 37.942918,-10.137796 17.37204,-10.1377951 27.50984,-27.509843 10.13779,-17.372047 10.13779,-37.942913 0,-20.570867 -10.13779,-37.942914 -10.1378,-17.37205 -27.50984,-27.50984 -17.372051,-10.1378 -37.942918,-10.1378 -20.570866,0 -37.942914,10.1378 -17.372047,10.13779 -27.509843,27.50984 -10.13779492,17.372047 -10.13779492,37.942914 0,20.570866 10.13779492,37.942913 10.137796,17.3720479 27.509843,27.509843 17.372048,10.137796 37.942914,10.137796 z m 46.456698,-122.637797 0.49212,0.492126 q -0.68897,0.984252 -2.85433,1.181102 0.0984,1.181103 -1.37795,2.608268 -1.47638,1.427165 -2.65748,1.525591 0,0.3937 -1.03347,1.082677 -1.03346,0.688976 -1.72244,0.787401 -0.88582,0.196851 -2.65748,-0.885826 -0.68897,-0.295276 -0.3937,-0.492126 -0.29527,0.295275 -1.1811,1.082677 -0.88583,0.787401 -1.5748,1.082677 -0.19685,0.09843 -0.73819,0.09843 -0.54134,0 -0.83662,0.196851 -0.0984,0.09843 -0.59055,0.442913 -0.49212,0.344488 -0.68898,0.442913 -0.19685,0.09843 -0.63976,0.295276 -0.44291,0.19685 -0.73819,0.147638 -0.29527,-0.04921 -0.73819,-0.246063 -0.44291,-0.196851 -0.83661,-0.590551 -0.3937,-0.393701 -0.44291,-1.525591 -0.0492,-1.13189 -0.24607,-1.427165 -0.787399,0.590551 -0.0492,1.968504 0.73819,1.377952 0.14764,1.968504 -0.688979,0.688976 -2.066931,0.04921 -1.377963,-0.639764 -2.06694,-1.52559 -0.09843,-0.09843 -0.935039,-0.541339 -0.836614,-0.442913 -1.13189,-0.738189 -0.393701,-0.590551 -0.885827,-1.722441 -0.492126,-1.13189 -0.590551,-1.32874 0,0.19685 -0.246063,0.639764 -0.246063,0.442913 -0.246063,0.639763 -1.181102,-0.19685 -1.574803,0.295276 0.492126,-1.574803 0.787402,-1.673228 l -0.393701,0.19685 q -0.09843,-0.590551 0.295276,-1.476378 0.3937,-0.885827 0.3937,-1.082677 0.09842,-0.492126 -0.147638,-1.279528 -0.246062,-0.787401 -0.246062,-1.082677 0,-0.196851 0.492125,-1.082681 0.393701,-1.87008 -0.19685,-3.14961 0,-0.0984 -0.344488,-0.68897 -0.344488,-0.59055 -0.639764,-1.08268 l -0.19685,-0.49212 -0.196851,0.0984 q -0.09843,0.0984 -0.19685,0 -0.09842,-0.59055 -0.885827,-1.27953 -0.787401,-0.68897 -0.984252,-1.08267 -1.476378,-2.26378 -0.885827,-3.74016 0.295276,-0.7874 0.984252,-0.98425 0.295276,-0.0984 0.295276,0.19685 0.09843,-0.88583 -1.082677,-2.65748 0.09843,-0.0984 0.393701,-0.29528 -1.673229,0 -0.984252,-1.37795 19.881894,3.5433 34.645674,17.814962 h -0.29528 z m -55.118115,18.208662 q 1.574803,0.295275 3.001968,-1.574804 1.427166,-1.870078 2.214567,-2.263779 4.035433,-1.968504 5.807087,-1.082677 0,-0.885827 1.377953,-2.755906 0.295275,-0.393701 0.639764,-1.13189 0.344488,-0.738189 0.541338,-1.033464 0.492126,-0.688977 1.870079,-1.574803 1.377953,-0.885827 1.870079,-1.574804 0.590551,0.295276 0.885826,0.885827 1.279528,-3.444882 2.362205,-3.346457 0.492126,0 0.787402,0.787402 0,-0.09843 -0.04921,-0.295276 -0.04921,-0.19685 -0.147638,-0.295275 0.688977,1.476378 0.492126,2.559055 l 0.590552,0.393701 q 0.492126,0.393701 0.492126,0.492126 -0.590552,0.590551 -0.885827,-0.295276 -2.952756,-1.377953 -4.72441,2.165355 -0.19685,0.295275 -0.442913,0.787401 -0.246063,0.492126 -0.492126,1.181103 -0.246063,0.688976 -0.147638,1.131889 0.09843,0.442914 0.590551,0.442914 1.082677,0 1.230315,0.147637 0.147638,0.147638 -0.246063,0.590552 -0.393701,0.442913 -0.393701,0.738189 -0.09843,0.3937 -0.147637,1.230315 -0.04921,0.836614 -0.147638,1.230315 l -0.492126,0.590551 q -0.492126,0.590551 -1.13189,1.32874 -0.639764,0.738189 -0.738189,0.935039 -0.393701,-0.984252 -1.624016,-0.836614 -1.230315,0.147638 -1.820866,0.93504 0.09842,-0.196851 -0.04921,-0.639764 -0.147638,-0.442914 -0.147638,-0.639764 -1.377953,0 -1.673229,0.09843 0.09843,0.590551 0.295276,2.066929 0.19685,1.476378 0.393701,2.165355 0.09843,0.492126 0.541338,1.32874 0.442914,0.836614 0.787402,1.52559 0.344488,0.688977 0.442913,1.377953 0.09843,0.688977 -0.442913,1.033465 -0.541339,0.344488 -1.820866,0.246063 -1.968504,-0.09843 -2.854331,-2.165355 -0.09842,-0.295275 -0.295276,-1.131889 -0.19685,-0.836615 -0.492126,-1.230315 -0.295275,-0.393701 -0.885826,-0.688977 -0.787402,-0.295275 -2.657481,-0.19685 -1.870078,0.09843 -2.559055,0.492126 -1.377953,0.787401 -2.362205,3.001968 -0.984252,2.214567 -1.082677,4.084646 0,0.984252 0.295276,2.706693 0.295275,1.722441 0.295275,2.65748 0,0.93504 -0.590551,2.608268 0.295276,0.196851 0.984252,1.033465 0.688977,0.836614 1.082677,1.13189 0.196851,0.19685 0.492126,0.19685 h 0.492126 q 0,0 0.393701,0.19685 0.393701,0.196851 0.295276,0.590552 -0.09842,0.09842 -0.393701,0.295275 -0.295276,0.295276 -0.393701,0.295276 0.393701,-0.295276 1.870079,-0.09842 1.476378,0.19685 1.870079,0.19685 0,0.09842 2.165354,0 1.673228,-1.279528 2.362205,0.19685 0,0.09843 -0.246063,1.033465 -0.246063,0.935039 -0.04921,1.427165 0.492126,-2.85433 3.149607,-0.984252 0.295275,-0.393701 1.624015,-0.590551 1.328741,-0.19685 1.820867,-0.492126 0.295275,-0.19685 0.688976,-0.541338 0.393701,-0.344489 0.590551,-0.492126 0.19685,-0.147638 0.590551,-0.04921 0.393701,0.09842 0.885827,0.688976 1.082677,-1.673228 1.279528,-2.46063 1.082677,-4.232283 1.968504,-4.724409 0.787401,-0.196851 1.230315,-0.196851 0.442913,0 0.492126,1.033465 0.04921,1.033465 0,1.525591 -0.04921,0.492126 -0.147638,1.279527 l -0.196851,3.641733 q -1.574803,0.295275 -1.968504,1.230314 -0.3937,0.93504 0.147638,1.968504 0.541339,1.033465 1.624016,1.919292 0.09843,0.09842 1.624016,0.787401 1.52559,0.688977 2.116142,1.181103 2.362204,1.870079 1.673228,3.838582 0.885827,-0.19685 1.082677,0.885827 l -0.492126,0.295276 q -0.393701,0.295275 -0.787402,0.541338 -0.3937,0.246063 -0.492126,0.147638 1.082678,0.688977 0.196851,1.771654 0.492126,0.295275 0.787401,1.13189 0.295276,0.836614 0.885827,1.131889 0.885827,-1.377952 2.165355,-0.295275 0.787401,0.885827 0.19685,1.771653 0.492126,0.787402 2.165354,1.13189 1.673233,0.344488 1.968503,0.93504 0.49213,-0.09843 0.68898,0 0.19685,0.09842 0.19685,0.442913 v 0.738189 q 0,0 0.0984,0.836614 0.0984,0.836614 0.29527,0.738189 0.3937,0.590551 1.5748,1.033465 1.18111,0.442913 1.37796,0.541338 l 1.87008,1.181103 q 0.3937,0.3937 0,0.3937 1.77165,-0.19685 3.1496,1.082678 1.27953,1.181102 -0.49212,2.263779 0.19685,0.688977 -0.3937,1.033465 -0.59056,0.344488 -1.57481,0.541338 0.29528,0.09843 1.1811,0.04921 0.88583,-0.04921 1.18111,0.147638 1.47637,1.082677 -0.68898,1.673228 -1.9685,0.492126 -4.62598,-1.279528 -0.29528,-0.19685 -1.27953,-1.181102 -0.98425,-0.984252 -1.67323,-1.082677 1.47638,1.771654 0.49213,2.165354 0.7874,-0.09842 2.21456,0.885827 1.42717,0.984252 1.52559,1.082677 0.3937,0.196851 1.03347,0.246063 0.63976,0.04921 0.83661,0.147638 6.98819,2.46063 9.05512,-0.09843 0.7874,1.082677 1.08268,1.476378 0.29527,0.393701 0.93504,0.885827 0.63976,0.492126 1.52559,0.787401 2.06693,0.688977 2.26378,0.885827 l 0.0984,2.26378 q -1.1811,-0.09843 -1.77165,0.787401 -0.59055,0.885827 -0.68898,2.165354 l -0.59055,-0.787401 q 0,0.590551 -0.34449,0.738189 -0.34449,0.147638 -0.73819,0.04921 -0.3937,-0.09843 -0.93504,-0.19685 -0.54133,-0.09842 -0.73818,0 -0.88583,0.19685 -1.9193,1.525591 -1.03346,1.32874 -1.42716,1.624015 0.88583,0 0.88583,0.492126 -0.19685,0.492126 -0.98426,0.787402 0.0984,0.5905512 -0.19685,0.7874016 -0.29527,0.1968504 -0.88582,0 -0.19685,1.1811024 -0.0984,1.2795276 -0.59055,0.098425 -1.08268,1.0826771 -0.49212,0.984252 -0.7874,0.984252 -0.19685,0 -0.44291,-0.1968504 -0.24606,-0.1968504 -0.49213,-0.5413386 l -0.49212,-0.6889764 q 0,0 -0.34449,-0.5413386 l -0.19685,-0.1968503 q -1.1811,0.5905511 -2.36221,-0.984252 -0.88582,0.098425 -1.67322,-0.1968504 1.47637,0.5905512 0.19685,1.2795276 -1.08268,0.4921259 -2.06693,0.1968503 1.1811,0.492126 0.98425,1.3779528 -0.19685,0.8858268 -1.1811,1.5748032 0.0984,0 0.3937,-0.098425 0.29527,-0.098425 0.3937,-0.098425 -0.0984,0.492126 -0.93504,0.9350394 -0.83662,0.4429134 -1.91929,0.8858268 -1.082682,0.4429134 -1.377957,0.6397637 -0.688977,0.492126 -3.543308,1.0334646 -2.85433,0.5413386 -3.543307,0.1476378 -0.492126,-0.2952756 -0.590551,-0.5905512 -0.09842,-0.2952756 0.147638,-0.8366141 0.246063,-0.5413386 0.344488,-0.8366142 0.590551,-2.2637796 0.492126,-2.6574804 -0.09842,-0.2952756 -0.836614,-0.7874016 -0.738189,-0.492126 -0.541339,-1.1811023 0.09843,-0.3937008 1.13189,-0.984252 1.033465,-0.590552 1.230315,-1.181103 0.492126,-1.279527 -0.393701,-2.46063 -0.393701,-0.492126 -1.476378,-1.082677 -1.082677,-0.590551 -1.377952,-0.984252 -0.492126,-0.492126 -0.344489,-1.13189 0.147638,-0.639763 0.04921,-0.935039 0.09843,0.09843 0.09843,0.246063 0,0.147638 0.09842,0.246063 0,-1.279528 1.082678,-2.165354 0.787401,-0.590552 -1.574804,-1.771654 -1.968504,-1.082677 -1.968504,-0.393701 0.09843,0.787402 -0.738189,1.574803 -0.836614,0.787402 -1.033464,1.181103 -0.196851,0.393701 -0.344488,1.870079 -0.147638,1.476377 -0.93504,2.066929 -0.590551,0.3937 -1.870079,0.3937 -1.279527,0 -1.771653,-0.492126 0,0.984252 -4.822835,2.952756 -1.673228,0.787402 -5.708661,0.393701 0.688976,0.09843 0,1.673229 -0.787402,1.5748031 -2.066929,1.1811024 -0.787402,2.4606299 -0.393701,3.4448819 0.19685,0.492126 0.885827,1.3779528 0.688976,0.8858267 0.885826,1.4763779 0.09843,0.2952756 1.525591,0.5905512 1.427165,0.2952756 1.624016,0.7874016 0.09843,0.3937008 -0.246063,0.63976379 -0.344489,0.246063 -0.93504,0.44291339 5.216536,-0.59055119 6.200788,1.77165352 0.492126,0.8858268 0.295275,1.3779528 0,-0.098425 0.196851,-0.098425 0.19685,0 0.19685,-0.098425 1.181103,0.2952756 0.688977,1.6732284 1.870078,0.7874016 2.559055,0.7874016 0.492126,-0.098425 1.082677,-0.5905512 0.590551,-0.492126 0.984252,-0.492126 1.673228,-0.2952756 2.116142,0.984252 0.442913,1.2795276 -0.93504,2.2637795 0.688977,-0.3937008 0.688977,0.5905512 -0.09843,1.2795276 -0.688977,1.8700792 -0.295275,0.19685 -0.639764,0.246063 -0.344488,0.04921 -0.639763,0 -0.295276,-0.04921 -0.688977,0.04921 -0.09843,0 -0.787401,0.196851 -0.09843,-0.09843 -0.196851,-0.09843 H 81.297929 Q 80.904228,10.484205 80.904228,10.18893 V 10.0905 Q 80.805808,9.7952288 81.297929,9.4999532 L 81.790055,9.401528 82.08533,9.2046776 q -0.09843,0 -0.246063,-0.246063 -0.147638,-0.246063 -0.246063,-0.246063 0,-0.2952756 0.295276,-0.492126 -0.196851,-0.098425 -1.377953,-0.738189 -1.181102,-0.6397637 -1.673228,-1.0334645 -0.09843,-0.098425 -0.393701,-0.246063 -0.295276,-0.1476378 -0.393701,-0.246063 -0.19685,-0.098425 -0.393701,0.1968504 -0.19685,0.2952756 -0.3937,0.8858268 -0.196851,0.5905511 -0.393701,1.1318897 -0.196851,0.5413386 -0.442914,0.984252 -0.246063,0.4429134 -0.541338,0.4429134 -1.181103,0 -1.771654,-1.6732284 0.295276,0.984252 -1.279527,1.722441 -1.574804,0.738189 -2.46063,0.738189 1.968504,1.476378 -0.885827,2.952756 l -0.09842,0.09843 q -2.952756,-0.393701 -4.429134,-0.688976 -0.196851,-0.590551 0.295275,-1.181103 -0.09843,-0.688976 0.590552,-0.885826 0,-0.09843 0.04921,-0.09843 0.04921,0 0.04921,-0.09843 0,0.09843 -0.04921,0.09843 -0.04921,0 -0.04921,0.09843 0.295275,-0.09843 1.033464,-0.147638 0.738189,-0.04921 0.93504,-0.147638 0.295275,-0.09843 0.442913,-0.19685 l 0.738189,-0.4921264 q 0,0 0.541339,-0.5905512 Q 70.077461,8.5157012 69.29006,8.6141264 69.093209,8.5157012 68.404233,8.2204256 67.715256,7.92515 67.173918,7.679087 66.632579,7.433024 66.534154,7.3345988 q -0.295276,-0.4921259 0,-1.5748031 0.295276,-1.0826772 -0.19685,-1.476378 -0.492126,0.492126 -0.984252,1.8208662 Q 64.860926,7.433024 64.56565,7.8267248 65.353052,6.9408981 61.612894,7.2361736 l -0.787402,0.098425 q -0.3937,0 -1.476377,-0.1968504 -1.082678,-0.1968503 -1.574804,-0.098425 -0.688976,0 -2.85433,0.5905511 0.688976,1.6732284 0.492126,2.4606297 0.492126,0 0.688976,0.196851 l -0.590551,0.295275 q -0.295276,-0.09843 -2.46063,-0.8858265 0.19685,-0.2952756 0.787401,-0.9350394 0.590552,-0.6397638 0.885827,-1.1318898 -2.165354,0.5905512 -2.65748,-0.1968504 0,-0.098425 -0.885827,0 -2.46063,0.098425 -2.362205,-0.6889763 0.09843,-0.3937008 0.885827,-1.1811024 0,-0.8858268 -0.09842,-0.8858268 -2.65748,2.1653544 -2.952756,2.2637796 -16.929134,-8.1692915 -27.165355,-24.409449 0.09842,-0.19685 0.246063,-1.082677 0.147638,-0.885827 0.344488,-0.836614 0.196851,0.04921 1.082678,0.442913 0.885826,-0.885827 0.295275,-2.066929 0.196851,0.19685 3.543307,-2.066929 5.511811,-3.937008 2.165355,-5.216536 v 0.541339 q 0,0 0.09842,0.639764 -0.885827,-0.09843 -1.870079,0.492126 -0.295275,-0.590552 0.04921,-1.968504 0.344488,-1.377953 1.13189,-1.377953 -0.787402,0 -1.033465,-1.673229 -0.246063,-1.673228 -0.246063,-3.78937 0,-2.116141 -0.09842,-2.509842 l 0.19685,-0.09842 q -0.295275,-1.279528 0.590551,-3.690945 0.885827,-2.411418 2.362205,-2.017717 -0.393701,-1.771654 0.492126,-2.066929 -0.09843,-0.393701 0,-0.787402 0.09842,-0.393701 0.442914,-0.836614 0.344488,-0.442913 0.590551,-0.688976 l 0.738189,-0.738189 0.590551,-0.590551 q 2.755905,-1.082678 4.035433,-2.854331 0.393701,-0.590551 1.033465,-2.411418 0.639763,-1.820866 1.52559,-2.509842 -0.19685,-0.590551 0.984252,-2.116142 1.181103,-1.52559 1.082677,-2.509842 -0.09842,0 -0.246063,-0.04921 -0.147637,-0.04921 -0.246063,-0.04921 0.295276,-0.787401 1.624016,-1.574803 1.32874,-0.787401 1.624016,-1.377953 0.19685,-0.295275 0.246063,-1.033464 0.04921,-0.738189 0.295275,-1.181103 0.246063,-0.442913 0.836615,-0.246063 0.295275,2.362205 -2.559056,6.692914 -1.574803,2.65748 -1.771653,3.051181 -0.295276,0.492126 -0.541339,1.624016 -0.246063,1.13189 -0.442913,1.52559 2.65748,-0.885826 2.559055,-1.279527 -0.492126,-0.984252 2.559055,-5.11811 0.196851,-0.295276 0.984252,-0.984252 0.787402,-0.688977 1.082677,-1.181103 0.295276,-0.393701 0.93504,-1.427165 0.639764,-1.033465 1.033464,-1.525591 -0.09842,0 -0.295275,-0.19685 L 47.242817,-66.4843 q 0.393701,-0.19685 0.885827,-0.492126 0.492126,-0.295275 0.787402,-0.442913 0.295275,-0.147638 0.738189,-0.492126 0.442913,-0.344488 0.738189,-0.738189 1.574803,-1.771654 1.968503,-3.248032 0.09843,-0.3937 0.04921,-1.52559 -0.04921,-1.13189 0.147638,-1.624016 0.19685,-0.590551 0.590551,-1.082677 0.393701,-0.492126 1.13189,-0.984252 0.738189,-0.492126 1.13189,-0.688977 0.3937,-0.19685 1.427165,-0.639763 1.033465,-0.442914 1.13189,-0.541339 0.19685,-0.09842 1.771653,-1.082677 1.574803,-0.984252 2.46063,-1.377953 0.984252,-0.393701 1.624016,-0.442913 0.639764,-0.04921 1.574803,0.246063 0.93504,0.295275 1.525591,0.393701 z" />
    </g>
  </g>
</svg>
